<svg id="Layer_1" data-name="Layer 1" xmlns="http://www.w3.org/2000/svg" viewBox="0 0 144 144"><defs><style>.cls-1{fill:#fff;}</style></defs><path class="cls-1" d="M128.47,58.42a105.39,105.39,0,0,0-1-16.59c-2.1-12.44-9.31-20.73-21.59-24.32-6.14-1.8-12.47-1.75-18.77-1.7-14.2.11-28.41.09-42.6.56a28.84,28.84,0,0,0-17.84,7c-8.08,6.82-10.81,16-11,26-.24,12.2-.23,24.41-.13,36.62a110.49,110.49,0,0,0,1,16.59c1.84,11.32,8.07,19.59,19.1,23.4a49.76,49.76,0,0,0,13.66,2.43c7.53.39,15.1.11,22.65.11v.35c9.19-.24,18.38-.27,27.56-.81A29.87,29.87,0,0,0,117.33,121c8.08-6.81,10.8-16,11-26C128.58,82.84,128.57,70.62,128.47,58.42ZM118,94.71a33.69,33.69,0,0,1-1.33,8.89c-2.33,8.41-9.26,14-18.53,14.24-16.24.4-32.5.36-48.75.33a33.38,33.38,0,0,1-8.7-1.31c-8.49-2.33-13.91-9.35-14.36-18.68-.42-8.69-.52-17.4-.76-26,.24-8.62.32-17.13.74-25.61.57-11.68,8.39-19.7,20.11-20,15.91-.41,31.82-.34,47.74-.31a36.16,36.16,0,0,1,9.12,1.28c8.47,2.25,14.18,9.3,14.4,18.62C118,62.35,118,78.53,118,94.71Z"/><path class="cls-1" d="M72,43.05A29.18,29.18,0,1,0,101.2,72.24,29.35,29.35,0,0,0,72,43.05ZM71.85,91a18.75,18.75,0,0,1,.2-37.5C83,53.54,90.56,62,90.85,72.33,90.39,83.34,82.13,91.12,71.85,91Z"/><path class="cls-1" d="M109.05,42a6.83,6.83,0,1,1-6.93-6.79A6.7,6.7,0,0,1,109.05,42Z"/></svg>