<?xml version="1.0" encoding="utf-8"?>
<!-- Generator: Adobe Illustrator 24.1.3, SVG Export Plug-In . SVG Version: 6.00 Build 0)  -->
<svg version="1.1" id="Layer_1" xmlns="http://www.w3.org/2000/svg" xmlns:xlink="http://www.w3.org/1999/xlink" x="0px" y="0px"
	 viewBox="0 0 144 144" style="enable-background:new 0 0 144 144;" xml:space="preserve">
<style type="text/css">
	.st0{fill:#0168B3;}
	.st1{fill:#FFFFFF;}
</style>
<circle class="st0" cx="71.5" cy="72" r="70.3"/>
<path class="st1" d="M119.8,108.2c-6.4-6.4-12.7-12.7-19-19c-1.5-1.5-1.5-1.5-0.4-3.2c5.6-8.8,7.6-19.4,5.7-29.6
	c-1.6-9.9-6.7-18.8-14.5-25.1c-9.7-8.3-22.7-11.7-35.2-9.1c-8.3,1.4-15.9,5.4-21.8,11.4C24.8,43.3,20.7,55.2,22.3,69
	c0.9,7.9,4.1,15.4,9.2,21.4c8.3,10,19.1,15.1,32.1,15.5c6.4,0.2,12.8-1.1,18.6-3.9c2.1-1,4.1-2.2,6.2-3.4l0.7,0.6l20.1,20
	c1.4,1.3,3.2,2.1,5.1,2.1c3.2,0,6-1.9,7.3-4.8C122.6,113.7,122,110.3,119.8,108.2z M64.2,90.5c-14.4,0.3-27.1-12.2-27-27.2
	c0.3-14.8,12.4-26.7,27.2-26.7c15,0.3,27,12.6,26.8,27.7C91,78.6,78.6,90.9,64.2,90.5z"/>
</svg>
