<svg id="Layer_1" data-name="Layer 1" xmlns="http://www.w3.org/2000/svg" viewBox="0 0 144 144"><defs><style>.cls-1{fill:#fff;}</style></defs><path class="cls-1" d="M119.76,108.17q-9.53-9.53-19.05-19c-1.49-1.49-1.49-1.49-.41-3.25A41,41,0,0,0,106,56.31,40.61,40.61,0,0,0,91.54,31.19a41.55,41.55,0,0,0-35.23-9.13A40.21,40.21,0,0,0,34.49,33.49C24.81,43.32,20.7,55.25,22.28,69a40.08,40.08,0,0,0,9.2,21.45c8.33,10,19.11,15.14,32.13,15.5A39.46,39.46,0,0,0,82.18,102c2.09-1,4.09-2.21,6.2-3.37l.65.6,20.08,20a7.23,7.23,0,0,0,5.09,2.11,7.85,7.85,0,0,0,7.26-4.82A7.63,7.63,0,0,0,119.76,108.17ZM64.21,90.52c-14.39.35-27.07-12.23-26.95-27.17A27.35,27.35,0,0,1,64.47,36.62,27.35,27.35,0,0,1,91.28,64.28C91,78.55,78.61,90.9,64.21,90.52Z"/></svg>