<svg id="Layer_1" data-name="Layer 1" xmlns="http://www.w3.org/2000/svg" viewBox="0 0 144 144"><defs><style>.cls-1{fill:#fff;}</style></defs><path class="cls-1" d="M123.17,41.43c-2.75,2.78-5.33,5.75-8.31,8.26a5.22,5.22,0,0,0-1.9,4.44c-.71,21.43-9.57,38.53-27.47,50.58-8.13,5.47-17.3,8.08-27.08,8.88a59.53,59.53,0,0,1-35.69-8.18l-.19-.12c4.79-.7,10-1.21,15.12-2.29s9.72-3.66,14.3-7.17c-9.47-1.06-15.85-5.6-19.45-14.59h8.55c-9.71-3.77-15.25-10.41-16-20.94l8.7,2.44C25.09,54.61,23.13,45.45,28,34.42c11.55,13.45,25.8,20.79,43,22,.17-3.18,0-6.31.57-9.27,1.59-7.75,6.41-13,13.87-15.44s14.51-.9,20.51,4.33a2.92,2.92,0,0,0,3.21.79c3.69-1.32,7.37-2.67,11.14-4.05-1.42,4.43-4.4,7.87-8.07,11.08L122.79,41Z"/></svg>